<svg version="1.1" id="Layer_1" xmlns="http://www.w3.org/2000/svg" x="0" y="0" viewBox="0 0 512 512" xml:space="preserve"><path d="M489.412 112.94h-67.765v182.713c0 37.365-30.398 67.765-67.765 67.765H213.611l-21.512 15.059-32.27 22.588-19.617 13.732c4.129 5.376 10.603 8.856 17.906 8.856H312.63l109.618 76.734a22.576 22.576 0 0012.955 4.084c3.567 0 7.148-.843 10.43-2.552a22.593 22.593 0 0012.156-20.036v-58.229h31.624c12.475 0 22.588-10.112 22.588-22.588V135.528c-.001-12.475-10.115-22.588-22.589-22.588z" fill="#ed6839"/><path d="M353.882 7.529H22.588C10.114 7.529 0 17.641 0 30.118v265.535c0 12.476 10.114 22.588 22.588 22.588h31.624v58.229a22.591 22.591 0 0022.587 22.588 22.58 22.58 0 0012.955-4.084l45.776-32.044 22.588-15.812 22.588-15.812 18.665-13.067h154.511c12.475 0 22.588-10.112 22.588-22.588V30.118c.001-12.477-10.113-22.589-22.588-22.589zm-90.353 225.883H112.941c-12.475 0-22.588-10.115-22.588-22.588 0-12.476 10.113-22.588 22.588-22.588h150.588c9.047 0 16.831 5.332 20.436 13.014a22.465 22.465 0 012.152 9.574c.001 12.473-10.113 22.588-22.588 22.588zm0-90.355H112.941c-12.475 0-22.588-10.114-22.588-22.588 0-12.475 10.113-22.588 22.588-22.588h150.588c12.475 0 22.588 10.114 22.588 22.588.001 12.475-10.113 22.588-22.588 22.588z" fill="#ed6839"/></svg>